<?xml version="1.0" encoding="utf-8"?>
<!-- Generator: Adobe Illustrator 25.0.1, SVG Export Plug-In . SVG Version: 6.00 Build 0)  -->
<svg version="1.1" id="Layer_1" xmlns="http://www.w3.org/2000/svg" xmlns:xlink="http://www.w3.org/1999/xlink" x="0px" y="0px"
	 viewBox="0 0 77.3 15.7" style="enable-background:new 0 0 77.3 15.7;" xml:space="preserve">
<style type="text/css">
	.st0{fill:#FFFFFF;}
	.st1{fill:#07AC78;}
</style>
<path class="st0" d="M26.1,12.8c-0.3,0.6-0.6,1.1-1.1,1.4c-0.5,0.4-1.1,0.7-1.7,0.9c-0.7,0.2-1.5,0.3-2.2,0.3
	c-1.1,0-2.3-0.2-3.3-0.6c-1.1-0.4-2.1-1-3-1.8l1.9-2.3c0.6,0.5,1.3,1,2.1,1.3c0.7,0.3,1.5,0.5,2.3,0.5c0.6,0,1.1-0.1,1.6-0.4
	c0.3-0.2,0.6-0.6,0.6-1v0c0-0.2,0-0.4-0.1-0.6c-0.1-0.2-0.3-0.3-0.5-0.5c-0.3-0.2-0.6-0.3-0.9-0.4c-0.4-0.1-0.9-0.3-1.5-0.5
	c-0.7-0.2-1.4-0.4-2-0.6c-0.6-0.2-1.1-0.5-1.5-0.8c-0.4-0.3-0.8-0.8-1-1.2c-0.2-0.6-0.4-1.2-0.4-1.9l0,0c0-0.6,0.1-1.3,0.4-1.8
	c0.3-0.5,0.6-1,1.1-1.4c0.5-0.4,1.1-0.8,1.7-1c0.7-0.2,1.4-0.3,2.1-0.3c2,0,4,0.6,5.5,1.9l-1.7,2.5c-0.6-0.4-1.3-0.8-2-1.1
	c-0.6-0.3-1.3-0.4-1.9-0.4c-0.5,0-1,0.1-1.4,0.4c-0.3,0.2-0.5,0.6-0.5,0.9v0c0,0.2,0,0.4,0.1,0.6c0.1,0.2,0.3,0.4,0.5,0.5
	c0.3,0.2,0.7,0.3,1,0.4c0.4,0.1,1,0.3,1.6,0.5c0.7,0.2,1.3,0.4,2,0.7c0.5,0.2,1,0.5,1.5,0.9c0.4,0.3,0.7,0.8,0.9,1.2
	c0.2,0.5,0.3,1.1,0.3,1.7l0,0C26.5,11.5,26.4,12.2,26.1,12.8z"/>
<path class="st0" d="M72.8,3.4v11.8h-3.3V3.4H65v-3h12.3v3H72.8z"/>
<rect x="52.4" y="6.7" class="st0" width="8.8" height="3"/>
<rect x="52.4" y="0.4" class="st0" width="8.8" height="3"/>
<polygon class="st0" points="53.2,3.4 53.2,3.4 53.2,0.4 49.9,0.4 49.9,15.3 53.2,15.3 53.2,9.5 53.2,9.5 53.2,6.6 53.2,6.6 "/>
<path class="st1" d="M36.9,0c-3.7,0.4-6.6,3.3-7,7h7V0z"/>
<path class="st1" d="M45.6,7c-0.4-3.7-3.3-6.6-7-7v7H45.6z"/>
<path class="st1" d="M38.7,15.7c3.7-0.4,6.6-3.3,7-7h-7V15.7z"/>
<path class="st1" d="M30,8.7c0.4,3.7,3.3,6.6,7,7v-7H30z"/>
<polygon class="st1" points="14,0.4 11.1,0.4 11.1,4.5 "/>
<polygon class="st0" points="7.2,6.7 9.3,4.5 9.3,0.4 3.3,6.9 3.3,0.4 0,0.4 0,15.3 3.3,15.3 3.3,10.7 5,9 9.6,15.3 13.5,15.3 "/>
</svg>
